<svg width="1408" height="20" viewBox="0 0 1408 20" fill="none" xmlns="http://www.w3.org/2000/svg">
<circle opacity="0.5" cx="4" cy="10" r="4" fill="white"/>
<circle opacity="0.5" cx="24" cy="10" r="4" fill="white"/>
<circle opacity="0.5" cx="44" cy="10" r="4" fill="white"/>
<path d="M597.67 7.74645C597.63 7.34541 597.459 7.03385 597.158 6.81179C596.856 6.58972 596.447 6.47869 595.93 6.47869C595.578 6.47869 595.282 6.52841 595.04 6.62784C594.798 6.72396 594.612 6.85819 594.483 7.03054C594.357 7.20289 594.294 7.39844 594.294 7.61719C594.288 7.79948 594.326 7.95857 594.408 8.09446C594.495 8.23035 594.612 8.34801 594.761 8.44744C594.911 8.54356 595.083 8.62808 595.279 8.70099C595.474 8.7706 595.683 8.83026 595.905 8.87997L596.82 9.09872C597.264 9.19815 597.672 9.33073 598.043 9.49645C598.414 9.66217 598.735 9.866 599.007 10.108C599.279 10.3499 599.489 10.6349 599.639 10.9631C599.791 11.2912 599.869 11.6674 599.872 12.0916C599.869 12.7147 599.71 13.255 599.395 13.7124C599.083 14.1664 598.633 14.5194 598.043 14.7713C597.456 15.0199 596.748 15.1442 595.92 15.1442C595.098 15.1442 594.382 15.0182 593.772 14.7663C593.166 14.5144 592.692 14.1416 592.35 13.6477C592.012 13.1506 591.835 12.5357 591.818 11.8033H593.901C593.925 12.1446 594.022 12.4297 594.195 12.6584C594.37 12.8838 594.604 13.0545 594.896 13.1705C595.191 13.2831 595.524 13.3395 595.895 13.3395C596.26 13.3395 596.576 13.2865 596.845 13.1804C597.116 13.0743 597.327 12.9268 597.476 12.7379C597.625 12.549 597.7 12.3319 597.7 12.0866C597.7 11.858 597.632 11.6657 597.496 11.5099C597.363 11.3542 597.168 11.2216 596.909 11.1122C596.654 11.0028 596.341 10.9034 595.97 10.8139L594.861 10.5355C594.002 10.3267 593.325 10.0002 592.828 9.55611C592.33 9.11198 592.083 8.51373 592.087 7.76136C592.083 7.14489 592.248 6.6063 592.579 6.1456C592.914 5.6849 593.373 5.32528 593.956 5.06676C594.539 4.80824 595.202 4.67898 595.945 4.67898C596.7 4.67898 597.36 4.80824 597.923 5.06676C598.49 5.32528 598.931 5.6849 599.246 6.1456C599.561 6.6063 599.723 7.13991 599.733 7.74645H597.67ZM608.169 4.81818H610.322V11.4304C610.322 12.1728 610.145 12.8224 609.79 13.3793C609.439 13.9361 608.947 14.3703 608.313 14.6818C607.68 14.9901 606.943 15.1442 606.101 15.1442C605.256 15.1442 604.517 14.9901 603.884 14.6818C603.251 14.3703 602.759 13.9361 602.407 13.3793C602.056 12.8224 601.88 12.1728 601.88 11.4304V4.81818H604.033V11.2464C604.033 11.6342 604.117 11.9789 604.286 12.2805C604.459 12.5821 604.701 12.8191 605.012 12.9915C605.324 13.1638 605.687 13.25 606.101 13.25C606.519 13.25 606.882 13.1638 607.19 12.9915C607.501 12.8191 607.742 12.5821 607.911 12.2805C608.083 11.9789 608.169 11.6342 608.169 11.2464V4.81818ZM612.653 4.81818H615.308L618.112 11.6591H618.231L621.035 4.81818H623.69V15H621.602V8.37287H621.517L618.883 14.9503H617.461L614.826 8.34801H614.741V15H612.653V4.81818ZM626.024 4.81818H628.679L631.482 11.6591H631.602L634.406 4.81818H637.061V15H634.973V8.37287H634.888L632.253 14.9503H630.831L628.196 8.34801H628.112V15H626.024V4.81818ZM639.394 15V4.81818H646.255V6.59304H641.547V9.01918H645.902V10.794H641.547V13.2251H646.275V15H639.394ZM648.526 15V4.81818H652.544C653.312 4.81818 653.969 4.95573 654.512 5.23082C655.059 5.5026 655.475 5.88873 655.76 6.3892C656.049 6.88636 656.193 7.47135 656.193 8.14418C656.193 8.82031 656.047 9.40199 655.755 9.8892C655.464 10.3731 655.041 10.7443 654.487 11.0028C653.937 11.2614 653.271 11.3906 652.489 11.3906H649.799V9.66051H652.141C652.552 9.66051 652.893 9.60417 653.165 9.49148C653.437 9.37879 653.639 9.20975 653.772 8.98438C653.907 8.759 653.975 8.47893 653.975 8.14418C653.975 7.80611 653.907 7.52107 653.772 7.28906C653.639 7.05705 653.435 6.88139 653.16 6.76207C652.888 6.63944 652.545 6.57812 652.131 6.57812H650.679V15H648.526ZM654.025 10.3665L656.556 15H654.179L651.703 10.3665H654.025ZM667.598 7.74645C667.558 7.34541 667.387 7.03385 667.086 6.81179C666.784 6.58972 666.375 6.47869 665.858 6.47869C665.506 6.47869 665.21 6.52841 664.968 6.62784C664.726 6.72396 664.54 6.85819 664.411 7.03054C664.285 7.20289 664.222 7.39844 664.222 7.61719C664.215 7.79948 664.253 7.95857 664.336 8.09446C664.422 8.23035 664.54 8.34801 664.689 8.44744C664.838 8.54356 665.011 8.62808 665.206 8.70099C665.402 8.7706 665.611 8.83026 665.833 8.87997L666.748 9.09872C667.192 9.19815 667.599 9.33073 667.971 9.49645C668.342 9.66217 668.663 9.866 668.935 10.108C669.207 10.3499 669.417 10.6349 669.566 10.9631C669.719 11.2912 669.797 11.6674 669.8 12.0916C669.797 12.7147 669.638 13.255 669.323 13.7124C669.011 14.1664 668.56 14.5194 667.971 14.7713C667.384 15.0199 666.676 15.1442 665.848 15.1442C665.026 15.1442 664.31 15.0182 663.7 14.7663C663.093 14.5144 662.619 14.1416 662.278 13.6477C661.94 13.1506 661.763 12.5357 661.746 11.8033H663.829C663.852 12.1446 663.95 12.4297 664.123 12.6584C664.298 12.8838 664.532 13.0545 664.824 13.1705C665.118 13.2831 665.452 13.3395 665.823 13.3395C666.187 13.3395 666.504 13.2865 666.772 13.1804C667.044 13.0743 667.255 12.9268 667.404 12.7379C667.553 12.549 667.627 12.3319 667.627 12.0866C667.627 11.858 667.56 11.6657 667.424 11.5099C667.291 11.3542 667.096 11.2216 666.837 11.1122C666.582 11.0028 666.269 10.9034 665.897 10.8139L664.789 10.5355C663.93 10.3267 663.252 10.0002 662.755 9.55611C662.258 9.11198 662.011 8.51373 662.015 7.76136C662.011 7.14489 662.175 6.6063 662.507 6.1456C662.841 5.6849 663.301 5.32528 663.884 5.06676C664.467 4.80824 665.13 4.67898 665.873 4.67898C666.628 4.67898 667.288 4.80824 667.851 5.06676C668.418 5.32528 668.859 5.6849 669.174 6.1456C669.489 6.6063 669.651 7.13991 669.661 7.74645H667.598ZM673.331 15H671.024L674.539 4.81818H677.313L680.823 15H678.516L675.966 7.14489H675.886L673.331 15ZM673.186 10.9979H678.635V12.6783H673.186V10.9979ZM682.608 15V4.81818H684.761V13.2251H689.126V15H682.608ZM691.112 15V4.81818H697.972V6.59304H693.264V9.01918H697.619V10.794H693.264V13.2251H697.992V15H691.112ZM710.333 4.81818H712.486V11.4304C712.486 12.1728 712.309 12.8224 711.954 13.3793C711.603 13.9361 711.11 14.3703 710.477 14.6818C709.844 14.9901 709.107 15.1442 708.265 15.1442C707.42 15.1442 706.681 14.9901 706.048 14.6818C705.415 14.3703 704.922 13.9361 704.571 13.3793C704.22 12.8224 704.044 12.1728 704.044 11.4304V4.81818H706.197V11.2464C706.197 11.6342 706.281 11.9789 706.45 12.2805C706.623 12.5821 706.865 12.8191 707.176 12.9915C707.488 13.1638 707.851 13.25 708.265 13.25C708.683 13.25 709.046 13.1638 709.354 12.9915C709.665 12.8191 709.906 12.5821 710.075 12.2805C710.247 11.9789 710.333 11.6342 710.333 11.2464V4.81818ZM714.817 15V4.81818H718.834C719.606 4.81818 720.264 4.96567 720.808 5.26065C721.351 5.55232 721.766 5.95833 722.051 6.47869C722.339 6.99574 722.483 7.59233 722.483 8.26847C722.483 8.9446 722.337 9.54119 722.046 10.0582C721.754 10.5753 721.332 10.978 720.778 11.2663C720.228 11.5547 719.562 11.6989 718.779 11.6989H716.219V9.97372H718.431C718.846 9.97372 719.187 9.90246 719.456 9.75994C719.727 9.61411 719.93 9.41359 720.062 9.15838C720.198 8.89986 720.266 8.60322 720.266 8.26847C720.266 7.9304 720.198 7.63542 720.062 7.38352C719.93 7.12831 719.727 6.93111 719.456 6.7919C719.184 6.64938 718.839 6.57812 718.421 6.57812H716.97V15H714.817ZM727.854 6.59304V4.81818H736.216V6.59304H733.099V15H730.971V6.59304H727.854ZM747.045 9.90909C747.045 11.0194 746.835 11.964 746.414 12.7429C745.996 13.5218 745.426 14.1167 744.703 14.5277C743.984 14.9354 743.175 15.1392 742.277 15.1392C741.372 15.1392 740.56 14.9337 739.841 14.5227C739.122 14.1117 738.554 13.5168 738.136 12.7379C737.718 11.959 737.509 11.0161 737.509 9.90909C737.509 8.79877 737.718 7.85417 738.136 7.07528C738.554 6.2964 739.122 5.70312 739.841 5.29545C740.56 4.88447 741.372 4.67898 742.277 4.67898C743.175 4.67898 743.984 4.88447 744.703 5.29545C745.426 5.70312 745.996 6.2964 746.414 7.07528C746.835 7.85417 747.045 8.79877 747.045 9.90909ZM744.862 9.90909C744.862 9.18987 744.755 8.58333 744.539 8.08949C744.327 7.59564 744.027 7.22112 743.639 6.96591C743.252 6.7107 742.798 6.5831 742.277 6.5831C741.757 6.5831 741.303 6.7107 740.915 6.96591C740.527 7.22112 740.226 7.59564 740.01 8.08949C739.798 8.58333 739.692 9.18987 739.692 9.90909C739.692 10.6283 739.798 11.2348 740.01 11.7287C740.226 12.2225 740.527 12.5971 740.915 12.8523C741.303 13.1075 741.757 13.2351 742.277 13.2351C742.798 13.2351 743.252 13.1075 743.639 12.8523C744.027 12.5971 744.327 12.2225 744.539 11.7287C744.755 11.2348 744.862 10.6283 744.862 9.90909ZM756.659 15.1392C755.956 15.1392 755.33 15.0099 754.78 14.7514C754.233 14.4929 753.799 14.1366 753.477 13.6825C753.156 13.2285 752.988 12.7081 752.975 12.1214H755.063C755.086 12.5159 755.252 12.8357 755.56 13.081C755.868 13.3262 756.235 13.4489 756.659 13.4489C756.997 13.4489 757.295 13.3743 757.554 13.2251C757.816 13.0727 758.02 12.8622 758.165 12.5938C758.315 12.322 758.389 12.0104 758.389 11.6591C758.389 11.3011 758.313 10.9863 758.16 10.7145C758.011 10.4427 757.804 10.2306 757.539 10.0781C757.274 9.92566 756.971 9.84777 756.629 9.84446C756.331 9.84446 756.041 9.90578 755.759 10.0284C755.481 10.151 755.264 10.3184 755.108 10.5305L753.194 10.1875L753.676 4.81818H759.9V6.57812H755.451L755.187 9.12855H755.247C755.426 8.87666 755.696 8.66785 756.057 8.50213C756.419 8.33641 756.823 8.25355 757.27 8.25355C757.884 8.25355 758.431 8.39773 758.911 8.68608C759.392 8.97443 759.771 9.3705 760.05 9.87429C760.328 10.3748 760.466 10.9515 760.462 11.6044C760.466 12.2905 760.306 12.9003 759.985 13.4339C759.667 13.9643 759.221 14.3819 758.648 14.6868C758.078 14.9884 757.415 15.1392 756.659 15.1392ZM766.516 15.2237C765.661 15.2204 764.925 15.0099 764.308 14.5923C763.695 14.1747 763.223 13.5698 762.892 12.7777C762.563 11.9856 762.401 11.0327 762.404 9.91903C762.404 8.80871 762.568 7.86245 762.897 7.08026C763.228 6.29806 763.7 5.70312 764.313 5.29545C764.93 4.88447 765.664 4.67898 766.516 4.67898C767.368 4.67898 768.1 4.88447 768.713 5.29545C769.33 5.70644 769.804 6.30303 770.135 7.08523C770.467 7.86411 770.631 8.80871 770.627 9.91903C770.627 11.036 770.462 11.9905 770.13 12.7827C769.802 13.5748 769.331 14.1797 768.718 14.5973C768.105 15.0149 767.371 15.2237 766.516 15.2237ZM766.516 13.4389C767.099 13.4389 767.565 13.1456 767.913 12.5589C768.261 11.9723 768.433 11.0923 768.43 9.91903C768.43 9.14678 768.35 8.50379 768.191 7.99006C768.035 7.47633 767.813 7.0902 767.525 6.83168C767.24 6.57315 766.904 6.44389 766.516 6.44389C765.936 6.44389 765.472 6.7339 765.124 7.31392C764.776 7.89394 764.6 8.76231 764.597 9.91903C764.597 10.7012 764.675 11.3542 764.83 11.8778C764.99 12.3982 765.213 12.7893 765.502 13.0511C765.79 13.3097 766.128 13.4389 766.516 13.4389ZM778.295 13.0909V12.554C778.295 12.1463 778.382 11.7718 778.554 11.4304C778.73 11.0857 778.983 10.8106 779.315 10.6051C779.649 10.3963 780.057 10.2919 780.538 10.2919C781.025 10.2919 781.434 10.3946 781.766 10.6001C782.1 10.8056 782.352 11.0807 782.521 11.4254C782.694 11.7668 782.78 12.143 782.78 12.554V13.0909C782.78 13.4986 782.694 13.8748 782.521 14.2195C782.349 14.5608 782.095 14.8343 781.761 15.0398C781.426 15.2486 781.018 15.353 780.538 15.353C780.05 15.353 779.641 15.2486 779.31 15.0398C778.978 14.8343 778.726 14.5608 778.554 14.2195C778.382 13.8748 778.295 13.4986 778.295 13.0909ZM779.742 12.554V13.0909C779.742 13.3262 779.799 13.5483 779.911 13.7571C780.027 13.9659 780.236 14.0703 780.538 14.0703C780.839 14.0703 781.045 13.9676 781.154 13.7621C781.267 13.5566 781.323 13.3329 781.323 13.0909V12.554C781.323 12.312 781.27 12.0866 781.164 11.8778C781.058 11.669 780.849 11.5646 780.538 11.5646C780.239 11.5646 780.032 11.669 779.916 11.8778C779.8 12.0866 779.742 12.312 779.742 12.554ZM773.07 7.2642V6.72727C773.07 6.31629 773.158 5.9401 773.334 5.59872C773.509 5.25402 773.763 4.97893 774.094 4.77344C774.429 4.56794 774.834 4.4652 775.308 4.4652C775.798 4.4652 776.209 4.56794 776.54 4.77344C776.872 4.97893 777.124 5.25402 777.296 5.59872C777.469 5.9401 777.555 6.31629 777.555 6.72727V7.2642C777.555 7.67519 777.467 8.05137 777.291 8.39276C777.119 8.73414 776.865 9.00758 776.531 9.21307C776.199 9.41525 775.791 9.51634 775.308 9.51634C774.824 9.51634 774.414 9.41359 774.08 9.2081C773.748 8.99929 773.496 8.72585 773.324 8.38778C773.155 8.0464 773.07 7.67187 773.07 7.2642ZM774.527 6.72727V7.2642C774.527 7.50615 774.583 7.72988 774.696 7.93537C774.812 8.14086 775.016 8.24361 775.308 8.24361C775.612 8.24361 775.82 8.14086 775.929 7.93537C776.042 7.72988 776.098 7.50615 776.098 7.2642V6.72727C776.098 6.48532 776.045 6.25994 775.939 6.05114C775.833 5.84233 775.622 5.73793 775.308 5.73793C775.013 5.73793 774.809 5.84399 774.696 6.05611C774.583 6.26823 774.527 6.49195 774.527 6.72727ZM773.727 15L780.727 4.81818H782.029L775.029 15H773.727ZM798.53 9.90909C798.53 11.0194 798.32 11.964 797.899 12.7429C797.481 13.5218 796.911 14.1167 796.188 14.5277C795.469 14.9354 794.66 15.1392 793.762 15.1392C792.857 15.1392 792.045 14.9337 791.326 14.5227C790.607 14.1117 790.039 13.5168 789.621 12.7379C789.203 11.959 788.994 11.0161 788.994 9.90909C788.994 8.79877 789.203 7.85417 789.621 7.07528C790.039 6.2964 790.607 5.70312 791.326 5.29545C792.045 4.88447 792.857 4.67898 793.762 4.67898C794.66 4.67898 795.469 4.88447 796.188 5.29545C796.911 5.70312 797.481 6.2964 797.899 7.07528C798.32 7.85417 798.53 8.79877 798.53 9.90909ZM796.347 9.90909C796.347 9.18987 796.24 8.58333 796.024 8.08949C795.812 7.59564 795.512 7.22112 795.124 6.96591C794.737 6.7107 794.283 6.5831 793.762 6.5831C793.242 6.5831 792.788 6.7107 792.4 6.96591C792.012 7.22112 791.711 7.59564 791.495 8.08949C791.283 8.58333 791.177 9.18987 791.177 9.90909C791.177 10.6283 791.283 11.2348 791.495 11.7287C791.711 12.2225 792.012 12.5971 792.4 12.8523C792.788 13.1075 793.242 13.2351 793.762 13.2351C794.283 13.2351 794.737 13.1075 795.124 12.8523C795.512 12.5971 795.812 12.2225 796.024 11.7287C796.24 11.2348 796.347 10.6283 796.347 9.90909ZM800.685 15V4.81818H807.426V6.59304H802.837V9.01918H806.979V10.794H802.837V15H800.685ZM809.434 15V4.81818H816.176V6.59304H811.587V9.01918H815.728V10.794H811.587V15H809.434Z" fill="#222222"/>
<circle opacity="0.5" cx="1364" cy="10" r="4" fill="white"/>
<circle opacity="0.5" cx="1384" cy="10" r="4" fill="white"/>
<circle opacity="0.5" cx="1404" cy="10" r="4" fill="white"/>
</svg>
